<svg width="25" height="24" viewBox="0 0 25 24" fill="none" xmlns="http://www.w3.org/2000/svg">
<g clip-path="url(#clip0)">
<path d="M23 12.5C23 18.2593 18.1157 23 12 23C5.88433 23 1 18.2593 1 12.5C1 6.74069 5.88433 2 12 2C18.1157 2 23 6.74069 23 12.5Z" fill="#BC3A80" stroke="black" stroke-width="2"/>
<path d="M12 2.91667C17.514 2.91667 22 7.21575 22 12.5C22 17.7842 17.514 22.0833 12 22.0833C6.486 22.0833 2 17.7842 2 12.5C2 7.21575 6.486 2.91667 12 2.91667ZM12 1C5.373 1 0 6.14915 0 12.5C0 18.8509 5.373 24 12 24C18.627 24 24 18.8509 24 12.5C24 6.14915 18.627 1 12 1ZM14 12.5L9.50001 16.8125L11.027 18.25L17 12.5L11.027 6.75L9.50001 8.1875L14 12.5Z" fill="white"/>
</g>
<defs>
<clipPath id="clip0">
<rect width="24.45" height="24" fill="white"/>
</clipPath>
</defs>
</svg>
