<svg width="25" height="21" viewBox="0 0 25 21" fill="none" xmlns="http://www.w3.org/2000/svg">
<path d="M24.9204 3.98155C24.8286 3.83379 24.6711 3.7446 24.502 3.7446H3.33486C3.18521 3.7446 3.04342 3.81462 2.94885 3.9353C2.85428 4.05593 2.81693 4.21446 2.84706 4.36689L4.811 14.2958C4.85866 14.5366 5.06245 14.7093 5.2988 14.7093H20.1922C20.3879 14.7093 20.5655 14.5901 20.6461 14.4045L24.9559 4.4756C25.0254 4.3153 25.0121 4.12932 24.9204 3.98155ZM19.8706 13.6735H5.70478L5.43834 12.3264H16.3188C16.5939 12.3264 16.8168 12.0945 16.8168 11.8085C16.8168 11.5225 16.5939 11.2906 16.3188 11.2906H5.24427C5.24064 11.2906 5.23715 11.291 5.23356 11.2911L4.93331 9.77323H15.6096C15.8847 9.77323 16.1076 9.5413 16.1076 9.2553C16.1076 8.9693 15.8847 8.73738 15.6096 8.73738H4.72843L4.40587 7.10663H15.1732C15.4483 7.10663 15.6712 6.8747 15.6712 6.5887C15.6712 6.3027 15.4483 6.07077 15.1732 6.07077H4.20094L3.94572 4.78046H23.7308L19.8706 13.6735Z" fill="white"/>
<path d="M3.05493 2.78459C3.3248 2.72933 3.50045 2.457 3.44731 2.17633L3.11424 0.417813C3.06828 0.175008 2.86355 0 2.6256 0H0.498008C0.222958 0 0 0.231928 0 0.517928C0 0.803928 0.222958 1.03586 0.498008 1.03586H2.21614L2.47007 2.37657C2.51683 2.62346 2.72505 2.79448 2.95817 2.79448C2.99009 2.79443 3.02246 2.79122 3.05493 2.78459Z" fill="white"/>
<path d="M8.27202 15.7727C6.89946 15.7727 5.78278 16.9341 5.78278 18.3615C5.78278 19.789 6.89946 20.9503 8.27202 20.9503C9.64463 20.9503 10.7613 19.789 10.7613 18.3615C10.7613 16.9341 9.64463 15.7727 8.27202 15.7727ZM8.27202 19.9145C7.44866 19.9145 6.77879 19.2179 6.77879 18.3616C6.77879 17.5053 7.44866 16.8086 8.27202 16.8086C9.09543 16.8086 9.76525 17.5053 9.76525 18.3616C9.76525 19.2179 9.09543 19.9145 8.27202 19.9145Z" fill="#52A336"/>
<path d="M17.1098 15.7727C15.7373 15.7727 14.6206 16.9341 14.6206 18.3615C14.6206 19.789 15.7373 20.9503 17.1098 20.9503C18.4824 20.9503 19.5991 19.789 19.5991 18.3615C19.5991 16.9341 18.4824 15.7727 17.1098 15.7727ZM17.1098 19.9145C16.2865 19.9145 15.6166 19.2179 15.6166 18.3616C15.6166 17.5053 16.2865 16.8086 17.1098 16.8086C17.9332 16.8086 18.6031 17.5053 18.6031 18.3616C18.6031 19.2179 17.9332 19.9145 17.1098 19.9145Z" fill="#3A3FBC"/>
<path d="M17.5736 7.1066H19.3193C19.5943 7.1066 19.8173 6.87467 19.8173 6.58867C19.8173 6.30267 19.5943 6.07074 19.3193 6.07074H17.5736C17.2985 6.07074 17.0756 6.30267 17.0756 6.58867C17.0756 6.87467 17.2985 7.1066 17.5736 7.1066Z" fill="#BC3A80"/>
</svg>
