<svg width="25" height="26" viewBox="0 0 25 26" fill="none" xmlns="http://www.w3.org/2000/svg">
<path d="M24.9204 6.50639C24.8286 6.35863 24.6711 6.26944 24.502 6.26944H3.33486C3.18521 6.26944 3.04342 6.33946 2.94885 6.46014C2.85428 6.58077 2.81693 6.7393 2.84706 6.89173L4.811 16.8206C4.85866 17.0614 5.06245 17.2342 5.2988 17.2342H20.1922C20.3879 17.2342 20.5655 17.1149 20.6461 16.9293L24.9559 7.00044C25.0254 6.84015 25.0121 6.65416 24.9204 6.50639ZM19.8706 16.1983H5.70478L5.43834 14.8513H16.3188C16.5939 14.8513 16.8168 14.6193 16.8168 14.3333C16.8168 14.0473 16.5939 13.8154 16.3188 13.8154H5.24427C5.24064 13.8154 5.23715 13.8159 5.23356 13.816L4.93331 12.2981H15.6096C15.8847 12.2981 16.1076 12.0661 16.1076 11.7801C16.1076 11.4941 15.8847 11.2622 15.6096 11.2622H4.72843L4.40587 9.63147H15.1732C15.4483 9.63147 15.6712 9.39954 15.6712 9.11354C15.6712 8.82754 15.4483 8.59561 15.1732 8.59561H4.20094L3.94572 7.3053H23.7308L19.8706 16.1983Z" fill="white"/>
<path d="M3.05493 5.30943C3.3248 5.25417 3.50045 4.98184 3.44731 4.70118L3.11424 2.94265C3.06828 2.69985 2.86355 2.52484 2.6256 2.52484H0.498008C0.222958 2.52484 0 2.75677 0 3.04277C0 3.32877 0.222958 3.5607 0.498008 3.5607H2.21614L2.47007 4.90141C2.51683 5.1483 2.72505 5.31932 2.95817 5.31932C2.99009 5.31927 3.02246 5.31606 3.05493 5.30943Z" fill="white"/>
<path d="M8.27202 18.2976C6.89946 18.2976 5.78278 19.4589 5.78278 20.8864C5.78278 22.3139 6.89946 23.4752 8.27202 23.4752C9.64463 23.4752 10.7613 22.3138 10.7613 20.8864C10.7613 19.4589 9.64463 18.2976 8.27202 18.2976ZM8.27202 22.4393C7.44866 22.4393 6.77879 21.7427 6.77879 20.8864C6.77879 20.0302 7.44866 19.3335 8.27202 19.3335C9.09543 19.3335 9.76525 20.0302 9.76525 20.8864C9.76525 21.7427 9.09543 22.4393 8.27202 22.4393Z" fill="white"/>
<path d="M17.1099 18.2976C15.7373 18.2976 14.6206 19.4589 14.6206 20.8864C14.6206 22.3139 15.7373 23.4752 17.1099 23.4752C18.4824 23.4752 19.5991 22.3138 19.5991 20.8864C19.5991 19.4589 18.4824 18.2976 17.1099 18.2976ZM17.1099 22.4393C16.2865 22.4393 15.6166 21.7427 15.6166 20.8864C15.6166 20.0302 16.2865 19.3335 17.1099 19.3335C17.9332 19.3335 18.6031 20.0302 18.6031 20.8864C18.6031 21.7427 17.9332 22.4393 17.1099 22.4393Z" fill="white"/>
<path d="M17.5736 9.63144H19.3193C19.5943 9.63144 19.8173 9.39951 19.8173 9.11351C19.8173 8.82751 19.5943 8.59558 19.3193 8.59558H17.5736C17.2985 8.59558 17.0755 8.82751 17.0755 9.11351C17.0755 9.39951 17.2985 9.63144 17.5736 9.63144Z" fill="white"/>
</svg>
