<svg width="21" height="22" viewBox="0 0 21 22" fill="none" xmlns="http://www.w3.org/2000/svg">
<path d="M20.5678 0H1.29274C1.05405 0 0.860565 0.196203 0.860565 0.438247V21.5618C0.860565 21.8038 1.05405 22 1.29274 22H20.5678C20.8065 22 21 21.8038 21 21.5618V0.438247C21 0.196203 20.8065 0 20.5678 0ZM20.1356 21.1235H1.72492V0.876494H20.1356V21.1235Z" fill="white"/>
<path d="M6.02508 7.34064C7.27618 7.34064 8.294 6.30852 8.294 5.03984C8.294 3.77116 7.27618 2.73904 6.02508 2.73904C4.77397 2.73904 3.75615 3.77116 3.75615 5.03984C3.75615 6.30852 4.77397 7.34064 6.02508 7.34064ZM6.02508 3.61554C6.79954 3.61554 7.42965 4.2545 7.42965 5.03984C7.42965 5.82518 6.79954 6.46414 6.02508 6.46414C5.25062 6.46414 4.6205 5.82518 4.6205 5.03984C4.6205 4.2545 5.25062 3.61554 6.02508 3.61554Z" fill="#BC3A80"/>
<path d="M9.84984 5.47809H17.6722C17.9109 5.47809 18.1044 5.28188 18.1044 5.03984C18.1044 4.7978 17.9109 4.60159 17.6722 4.60159H9.84984C9.61115 4.60159 9.41766 4.7978 9.41766 5.03984C9.41766 5.28188 9.61115 5.47809 9.84984 5.47809Z" fill="#BC3A80"/>
<path d="M17.6722 10.6056H16.0732C15.8345 10.6056 15.641 10.8018 15.641 11.0438C15.641 11.2859 15.8345 11.4821 16.0732 11.4821H17.6722C17.9109 11.4821 18.1044 11.2859 18.1044 11.0438C18.1044 10.8018 17.9109 10.6056 17.6722 10.6056Z" fill="#52A336"/>
<path d="M6.02508 13.3446C7.12838 13.3446 8.04978 12.5418 8.25221 11.4821H14.4309C14.6696 11.4821 14.8631 11.2859 14.8631 11.0438C14.8631 10.8018 14.6696 10.6056 14.4309 10.6056H8.25221C8.04978 9.54587 7.12838 8.74304 6.02508 8.74304C4.77397 8.74304 3.75615 9.77516 3.75615 11.0438C3.75615 12.3125 4.77397 13.3446 6.02508 13.3446ZM6.02508 9.61954C6.79954 9.61954 7.42965 10.2585 7.42965 11.0438C7.42965 11.8292 6.79954 12.4681 6.02508 12.4681C5.25062 12.4681 4.6205 11.8292 4.6205 11.0438C4.6205 10.2585 5.25062 9.61954 6.02508 9.61954Z" fill="#52A336"/>
<path d="M6.02508 19.261C7.12838 19.261 8.04978 18.4581 8.25221 17.3984H17.6722C17.9109 17.3984 18.1044 17.2022 18.1044 16.9602C18.1044 16.7181 17.9109 16.5219 17.6722 16.5219H8.25221C8.04978 15.4622 7.12838 14.6594 6.02508 14.6594C4.77397 14.6594 3.75615 15.6915 3.75615 16.9602C3.75615 18.2288 4.77397 19.261 6.02508 19.261ZM6.02508 15.5359C6.79954 15.5359 7.42965 16.1748 7.42965 16.9602C7.42965 17.7455 6.79954 18.3845 6.02508 18.3845C5.25062 18.3845 4.6205 17.7455 4.6205 16.9602C4.6205 16.1748 5.25062 15.5359 6.02508 15.5359Z" fill="#3A3FBC"/>
</svg>
