<?xml version="1.0" standalone="no"?>
<!DOCTYPE svg PUBLIC "-//W3C//DTD SVG 20010904//EN"
 "http://www.w3.org/TR/2001/REC-SVG-20010904/DTD/svg10.dtd">
<svg version="1.0" xmlns="http://www.w3.org/2000/svg"
 width="249.000000pt" height="249.000000pt" viewBox="0 0 249.000000 249.000000"
 preserveAspectRatio="xMidYMid meet">
<metadata>
Created by potrace 1.11, written by Peter Selinger 2001-2013
</metadata>
<g transform="translate(0.000000,249.000000) scale(0.100000,-0.100000)"
fill="#000000" stroke="none">
<path d="M1085 2393 c-201 -27 -405 -103 -565 -209 -95 -63 -192 -150 -258
-233 -20 -25 -43 -52 -49 -59 -7 -7 -13 -17 -13 -22 0 -5 -7 -15 -15 -24 -21
-21 -101 -178 -100 -196 0 -8 -2 -17 -6 -20 -4 -3 -9 -14 -11 -25 -1 -11 -7
-23 -11 -26 -5 -3 -9 -22 -10 -42 -1 -20 -6 -37 -11 -37 -5 0 -2 -8 5 -17 8
-9 9 -14 3 -10 -16 9 -23 -13 -31 -87 -9 -87 -9 -177 1 -205 6 -16 5 -21 -3
-17 -8 5 -8 0 -2 -16 4 -13 6 -29 4 -35 -3 -7 -1 -13 4 -13 5 0 10 -10 11 -22
0 -13 2 -40 4 -60 1 -20 5 -35 8 -33 4 2 14 -5 23 -16 15 -17 14 -23 -5 -20
-4 0 -4 -7 -1 -16 4 -11 8 -13 11 -5 3 10 7 10 20 0 15 -12 16 -11 3 5 -7 9
-10 17 -6 17 4 0 2 7 -5 15 -6 8 -9 19 -5 24 4 7 0 8 -11 4 -14 -5 -15 -3 -4
17 7 13 8 20 2 16 -7 -4 -9 7 -6 33 2 22 0 42 -5 46 -6 3 -7 13 -4 22 5 12 2
15 -10 10 -11 -4 -17 -1 -17 8 0 9 6 12 15 9 8 -4 15 -1 15 6 0 6 -4 8 -10 5
-5 -3 -10 -2 -10 4 0 5 3 11 8 14 4 2 0 2 -8 0 -8 -2 -11 -1 -7 3 4 4 1 14 -5
23 -7 9 -8 13 -4 9 5 -4 15 0 22 10 18 24 17 33 -3 30 -12 -2 -18 4 -19 19 -1
12 2 20 7 17 4 -2 6 -11 2 -19 -3 -10 -1 -13 8 -10 16 6 22 55 7 55 -5 0 -6
-4 -3 -10 3 -6 -1 -7 -10 -3 -11 4 -13 8 -5 13 6 3 8 13 5 21 -6 17 11 46 22
36 4 -5 1 -12 -6 -16 -8 -5 -10 -14 -6 -22 11 -17 23 16 20 59 -1 17 3 32 8
32 6 0 8 3 4 6 -3 3 -2 17 4 31 7 18 6 22 -4 17 -9 -6 -9 -5 0 7 6 8 21 43 33
79 26 77 100 232 120 250 3 3 17 21 30 40 39 57 140 161 215 222 152 123 400
228 610 257 94 13 333 5 419 -14 304 -66 552 -218 734 -447 16 -21 33 -34 37
-30 5 4 5 2 1 -5 -3 -6 9 -36 27 -65 18 -29 39 -68 46 -85 8 -18 18 -33 24
-33 6 0 8 -3 4 -6 -3 -4 0 -19 8 -34 8 -15 11 -30 8 -34 -4 -3 2 -6 13 -7 10
0 14 -3 7 -5 -10 -5 -4 -47 14 -94 3 -8 8 -33 10 -55 2 -22 10 -43 16 -47 9
-6 9 -10 -2 -17 -8 -5 -9 -11 -3 -15 5 -3 8 -17 7 -31 -2 -14 1 -23 6 -19 5 3
9 0 9 -7 0 -10 3 -10 12 -1 19 19 18 41 -3 47 -10 4 -19 11 -19 18 0 8 3 8 12
-1 17 -17 33 -15 18 3 -7 8 -9 15 -4 15 5 0 -2 7 -14 16 -22 15 -22 16 -6 44
16 26 16 30 -3 69 -11 22 -16 38 -12 35 13 -8 11 3 -6 36 -9 17 -15 32 -15 35
1 20 -14 54 -23 48 -6 -3 -7 -1 -3 5 6 10 -38 119 -53 132 -3 3 -12 16 -19 30
-23 46 -101 143 -165 209 -167 170 -400 294 -652 347 -76 16 -347 27 -420 17z
m-1012 -870 c-3 -7 -6 -13 -8 -13 -2 0 -5 6 -8 13 -3 8 1 14 8 14 7 0 11 -6 8
-14z m2351 1 c3 -8 2 -12 -4 -9 -6 3 -10 10 -10 16 0 14 7 11 14 -7z m21 -42
c-3 -3 -11 0 -18 7 -9 10 -8 11 6 5 10 -3 15 -9 12 -12z m-2399 -43 c-8 -12
-12 -29 -9 -38 4 -13 3 -13 -5 -2 -11 15 4 61 20 61 5 0 2 -10 -6 -21z m2409
11 c-3 -5 -11 -10 -16 -10 -6 0 -7 5 -4 10 3 6 11 10 16 10 6 0 7 -4 4 -10z
m15 -135 c11 -13 10 -14 -4 -9 -9 3 -16 10 -16 15 0 13 6 11 20 -6z m-2430
-71 c0 -8 -19 -13 -24 -6 -3 5 1 9 9 9 8 0 15 -2 15 -3z m-5 -123 c-3 -5 -1
-12 4 -15 5 -4 9 -20 9 -37 -1 -18 -4 -25 -9 -18 -4 7 -6 20 -4 30 2 10 -1 21
-6 24 -9 6 -3 25 7 25 3 0 3 -4 -1 -9z"/>
<path d="M1093 1865 c0 -8 4 -12 9 -9 5 3 6 10 3 15 -9 13 -12 11 -12 -6z"/>
<path d="M1130 1870 c0 -5 5 -10 11 -10 5 0 7 5 4 10 -3 6 -8 10 -11 10 -2 0
-4 -4 -4 -10z"/>
<path d="M1453 1865 c0 -8 4 -12 9 -9 5 3 6 10 3 15 -9 13 -12 11 -12 -6z"/>
<path d="M1027 1849 c7 -7 15 -10 18 -7 3 3 -2 9 -12 12 -14 6 -15 5 -6 -5z"/>
<path d="M1155 1850 c-3 -5 -1 -10 4 -10 6 0 11 5 11 10 0 6 -2 10 -4 10 -3 0
-8 -4 -11 -10z"/>
<path d="M1296 1843 c-6 -14 -5 -15 5 -6 7 7 10 15 7 18 -3 3 -9 -2 -12 -12z"/>
<path d="M1320 1856 c0 -2 8 -10 18 -17 15 -13 16 -12 3 4 -13 16 -21 21 -21
13z"/>
<path d="M1106 1832 c-3 -5 1 -9 9 -9 8 0 15 4 15 9 0 4 -4 8 -9 8 -6 0 -12
-4 -15 -8z"/>
<path d="M1186 1832 c-2 -4 4 -8 14 -8 10 0 16 4 14 8 -3 4 -9 8 -14 8 -5 0
-11 -4 -14 -8z"/>
<path d="M1430 1829 c0 -5 5 -7 10 -4 6 3 10 8 10 11 0 2 -4 4 -10 4 -5 0 -10
-5 -10 -11z"/>
<path d="M1490 1830 c0 -5 5 -10 11 -10 5 0 7 5 4 10 -3 6 -8 10 -11 10 -2 0
-4 -4 -4 -10z"/>
<path d="M1064 1808 l-19 -23 23 19 c21 18 27 26 19 26 -2 0 -12 -10 -23 -22z"/>
<path d="M1159 1828 c-7 -23 -4 -38 7 -42 11 -4 12 -1 5 13 -6 10 -7 21 -4 25
3 3 3 6 0 6 -4 0 -7 -1 -8 -2z"/>
<path d="M1245 1810 c8 -9 13 -20 10 -23 -3 -4 -2 -5 2 -2 15 12 9 41 -8 41
-16 0 -17 -2 -4 -16z"/>
<path d="M991 1817 c2 -1 13 -9 24 -17 19 -14 19 -14 6 3 -7 9 -18 17 -24 17
-6 0 -8 -1 -6 -3z"/>
<path d="M1294 1803 c1 -7 6 -16 11 -20 4 -4 5 -3 1 4 -3 6 2 16 11 22 16 9
16 10 -3 8 -12 0 -21 -7 -20 -14z"/>
<path d="M1348 1793 c7 -3 16 -2 19 1 4 3 -2 6 -13 5 -11 0 -14 -3 -6 -6z"/>
<path d="M1456 1783 c-6 -14 -5 -15 5 -6 7 7 10 15 7 18 -3 3 -9 -2 -12 -12z"/>
<path d="M1513 1785 c0 -8 4 -12 9 -9 5 3 6 10 3 15 -9 13 -12 11 -12 -6z"/>
<path d="M1570 1790 c0 -5 5 -10 11 -10 5 0 7 5 4 10 -3 6 -8 10 -11 10 -2 0
-4 -4 -4 -10z"/>
<path d="M1093 1775 c0 -8 4 -12 9 -9 5 3 6 10 3 15 -9 13 -12 11 -12 -6z"/>
<path d="M1017 1765 c-4 -8 -3 -16 1 -19 4 -3 9 4 9 15 2 23 -3 25 -10 4z"/>
<path d="M1045 1770 c-3 -5 -1 -10 5 -10 6 0 8 -5 4 -12 -4 -7 -3 -8 4 -4 6 4
9 13 5 21 -6 18 -10 19 -18 5z"/>
<path d="M1147 1769 c7 -7 15 -10 18 -7 3 3 -2 9 -12 12 -14 6 -15 5 -6 -5z"/>
<path d="M1226 1767 c3 -10 9 -15 12 -12 3 3 0 11 -7 18 -10 9 -11 8 -5 -6z"/>
<path d="M1270 1773 c0 -5 5 -15 10 -23 7 -12 9 -10 7 8 -1 19 -17 33 -17 15z"/>
<path d="M1390 1772 c0 -4 11 -8 25 -8 28 0 24 8 -5 13 -11 2 -20 -1 -20 -5z"/>
<path d="M1309 1758 c10 -13 10 -18 2 -18 -8 0 -10 -8 -5 -22 6 -19 5 -21 -8
-11 -8 7 -18 10 -21 6 -4 -3 -7 3 -7 15 0 11 -5 24 -11 28 -8 4 -9 -1 -4 -17
7 -20 6 -22 -7 -12 -8 7 -18 10 -22 6 -10 -11 -36 -12 -36 -2 0 5 7 9 15 9 8
0 15 4 15 8 0 4 -8 8 -18 8 -20 0 -25 -24 -9 -43 12 -16 -5 -17 -20 -2 -6 6
-9 19 -6 28 4 13 3 14 -5 1 -8 -10 -8 -18 -1 -27 8 -9 5 -11 -10 -10 -15 1
-20 6 -16 17 11 28 10 34 -7 38 -10 2 -18 -1 -18 -7 0 -6 7 -8 15 -5 11 5 13
2 9 -10 -8 -21 -20 -20 -33 2 -6 10 -11 12 -11 4 0 -8 -5 -10 -12 -6 -9 5 -8
2 1 -9 8 -10 11 -21 7 -24 -4 -4 -11 -1 -16 7 -7 11 -8 5 -6 -17 4 -26 1 -31
-15 -30 -18 1 -28 17 -10 17 5 0 9 12 9 26 0 14 -4 21 -7 15 -4 -6 -16 -18
-27 -26 -18 -14 -18 -15 0 -9 16 6 17 4 7 -14 -7 -12 -10 -22 -9 -23 25 -7 37
-5 32 3 -4 7 -2 8 5 4 9 -6 9 -11 1 -21 -11 -14 -5 -14 53 -6 5 0 6 5 2 11 -3
5 -12 7 -20 3 -18 -6 -20 13 -3 23 7 5 8 3 3 -6 -5 -9 -4 -11 4 -6 9 6 9 12
-1 24 -10 14 -10 15 2 5 9 -8 19 -9 32 -2 10 5 18 7 18 4 0 -3 9 -1 19 5 14 7
22 7 27 -1 4 -8 9 -7 15 2 7 12 9 12 9 0 0 -9 4 -10 13 -4 6 6 20 9 30 8 10
-2 14 1 11 7 -5 7 -2 8 7 2 22 -13 58 -12 63 2 3 7 1 16 -5 20 -6 3 -3 12 8
21 15 12 15 14 2 10 -9 -3 -23 0 -30 6 -11 10 -11 9 0 -5z m-188 -66 c-6 -2
-14 -4 -17 -5 -4 -1 -8 8 -9 21 -2 21 -1 21 17 5 11 -10 15 -19 9 -21z m129
20 c0 -12 -39 -12 -46 0 -4 6 -2 8 4 4 6 -3 13 -2 17 4 7 11 25 4 25 -8z"/>
<path d="M1477 1763 c-10 -9 -9 -23 1 -23 5 0 9 7 9 15 0 17 -1 18 -10 8z"/>
<path d="M1695 1761 c-3 -5 -2 -12 3 -15 5 -3 9 1 9 9 0 17 -3 19 -12 6z"/>
<path d="M1367 1754 c7 -3 9 -12 6 -20 -5 -13 -8 -13 -15 -2 -8 10 -9 9 -5 -4
3 -9 -1 -22 -9 -29 -8 -7 -13 -18 -10 -25 3 -8 0 -11 -9 -7 -8 3 -13 8 -11 12
3 4 -15 7 -40 6 -28 0 -49 -6 -54 -15 -7 -11 -10 -12 -10 -2 0 7 -4 11 -9 7
-5 -3 -12 -1 -16 5 -4 7 -12 7 -26 0 -10 -6 -19 -8 -19 -5 0 3 -9 1 -21 -5
-15 -9 -18 -15 -10 -24 6 -7 8 -16 4 -19 -3 -4 -1 -7 6 -7 8 0 11 6 7 16 -4
10 -2 13 6 8 8 -5 9 -1 4 12 -4 10 -4 15 0 12 4 -4 16 -3 28 3 18 9 19 8 5 -3
-21 -17 -41 -55 -31 -61 9 -5 -13 1 -33 9 -10 4 -15 0 -15 -11 0 -10 5 -13 12
-9 7 5 8 3 3 -6 -6 -10 -13 -7 -27 11 -12 15 -18 18 -15 7 7 -19 -15 -30 -40
-21 -15 5 -16 3 -5 -8 6 -7 12 -17 12 -23 0 -5 -6 -1 -14 10 -8 11 -18 15 -23
10 -4 -5 -2 -11 5 -13 6 -3 12 -9 12 -15 0 -6 -6 -6 -15 2 -12 10 -18 10 -32
-1 -10 -7 -20 -15 -22 -16 -3 -2 4 -9 14 -16 15 -12 15 -14 1 -14 -8 0 -18 9
-22 19 -7 24 -16 23 -33 -3 -12 -20 -11 -21 5 -15 10 4 21 1 26 -6 13 -21 9
-33 -5 -14 -12 16 -14 16 -26 2 -10 -12 -11 -19 -2 -30 9 -11 7 -13 -11 -12
-33 3 -40 -3 -23 -21 11 -11 13 -19 5 -27 -5 -7 -8 -16 -5 -20 3 -3 -1 -1 -7
4 -10 9 -10 13 2 20 16 10 16 10 -17 14 -13 2 -23 -1 -23 -6 0 -4 5 -8 11 -8
5 0 8 -4 4 -9 -3 -5 -1 -12 5 -16 5 -3 10 -12 10 -18 0 -7 -5 -4 -11 6 -5 9
-14 17 -20 17 -5 0 -2 -11 7 -25 9 -15 13 -25 8 -24 -24 4 -26 -3 -4 -15 l24
-14 -32 2 c-17 1 -37 8 -44 15 -11 12 -10 12 2 6 13 -8 13 -7 0 11 -11 15 -11
16 0 7 18 -16 30 -17 30 -1 0 6 -3 8 -7 5 -7 -8 -33 11 -33 24 0 5 5 9 11 9 5
0 8 -4 4 -9 -3 -5 0 -13 6 -17 8 -5 9 -3 4 6 -5 8 -4 11 2 7 5 -3 10 0 10 8 0
8 -5 11 -10 8 -6 -3 -7 -1 -3 6 4 6 12 8 18 5 6 -4 5 2 -1 15 -9 17 -9 21 1
19 7 -2 12 2 11 9 -2 8 4 10 15 7 14 -5 14 -4 3 4 -8 6 -16 18 -17 27 -1 9 -5
20 -9 23 -10 10 -65 10 -59 0 3 -5 9 -6 13 -3 10 6 32 -41 23 -49 -3 -4 -11 2
-17 13 -10 20 -11 20 -23 1 -7 -12 -8 -20 -2 -20 5 0 10 6 10 13 0 8 4 7 10
-3 14 -22 12 -30 -7 -24 -14 5 -15 4 -4 -4 8 -6 10 -12 3 -16 -6 -4 -15 2 -21
11 -6 10 -10 14 -10 8 0 -5 6 -19 14 -29 22 -29 18 -45 -4 -19 -15 18 -20 20
-25 8 -3 -8 -1 -17 4 -20 15 -10 12 -25 -6 -25 -9 0 -12 5 -8 12 4 7 3 8 -5 4
-14 -9 -5 -26 15 -26 8 0 13 -4 9 -10 -3 -5 -13 -6 -23 -3 -14 5 -15 3 -4 -8
9 -10 15 -10 24 -1 7 7 17 12 23 12 5 -1 -5 -14 -23 -29 -30 -26 -32 -30 -17
-44 9 -9 23 -13 33 -10 15 6 15 4 4 -10 -8 -9 -21 -13 -30 -10 -13 4 -12 2 3
-11 20 -17 20 -17 -4 -10 -17 4 -21 3 -16 -6 4 -6 17 -9 29 -6 19 5 22 1 22
-25 0 -23 -3 -28 -15 -24 -11 3 -9 0 3 -10 20 -15 17 -18 -19 -16 -18 1 -17 0
3 -9 12 -5 25 -16 28 -24 6 -17 51 -16 51 1 0 7 -5 9 -10 6 -6 -4 -7 -1 -2 7
5 9 4 11 -3 6 -8 -5 -10 -2 -6 8 4 11 0 16 -12 16 -16 0 -17 2 -4 10 13 9 13
10 0 10 -10 0 -11 3 -4 8 6 4 10 21 8 37 -1 17 3 38 7 47 7 14 6 16 -6 12 -8
-4 -15 -2 -15 3 0 5 9 9 19 10 17 1 19 -4 17 -43 -1 -25 1 -47 6 -50 5 -3 3
-12 -3 -21 -10 -12 -10 -16 1 -23 7 -4 20 -6 29 -3 10 3 12 2 6 -4 -10 -7 -11
-18 -6 -40 1 -5 7 5 14 20 12 27 12 27 25 7 7 -11 8 -20 3 -20 -5 0 -12 6 -15
13 -3 6 -5 3 -3 -8 2 -14 9 -20 27 -19 14 1 17 -1 7 -3 -9 -3 -15 -8 -12 -13
3 -5 1 -11 -5 -15 -5 -3 -10 -22 -10 -42 0 -43 -11 -38 -15 7 -1 17 2 30 9 30
6 0 5 4 -3 9 -7 5 -10 15 -7 22 4 8 0 5 -8 -5 -9 -11 -16 -15 -16 -9 0 15 -33
10 -38 -5 -2 -7 -8 -10 -13 -6 -5 3 -9 0 -9 -6 0 -8 7 -9 18 -5 9 4 23 9 30
12 6 3 12 0 12 -6 0 -6 -7 -11 -15 -11 -8 0 -15 -5 -15 -10 0 -7 6 -7 19 0 26
14 30 13 27 -7 -2 -9 -9 -19 -16 -21 -8 -3 -10 0 -5 7 5 9 1 9 -13 0 -24 -15
-23 -18 7 -24 12 -2 21 1 22 8 0 7 4 3 9 -8 5 -14 3 -24 -6 -31 -12 -9 -10
-11 11 -11 21 0 24 3 19 21 -6 18 -5 19 9 8 11 -9 21 -11 33 -4 16 9 15 11 -4
21 -15 8 -22 8 -25 -2 -3 -6 -4 4 -3 23 2 34 25 49 34 23 2 -7 -4 -13 -13 -13
-9 0 -14 -4 -10 -9 3 -6 14 -9 25 -8 15 1 18 6 14 27 -5 20 -2 18 13 -10 10
-19 24 -34 32 -32 7 1 26 -9 43 -23 16 -14 25 -25 20 -25 -5 0 -17 9 -27 20
-10 11 -23 20 -28 20 -6 0 2 -13 17 -29 16 -16 34 -27 41 -24 22 8 55 -15 48
-35 -3 -9 -3 -14 2 -10 4 4 20 1 36 -8 18 -9 29 -10 29 -4 0 6 -11 15 -25 20
-32 12 -32 19 0 12 16 -3 27 -13 31 -28 4 -14 11 -21 18 -17 6 3 6 1 -1 -8
-15 -15 -17 -53 -3 -44 5 3 7 0 4 -9 -8 -21 -33 2 -28 27 2 14 0 15 -17 7 -18
-10 -23 -6 -20 13 1 5 -4 5 -11 1 -8 -5 -7 -1 2 12 14 17 13 18 -1 7 -12 -10
-18 -10 -29 0 -10 10 -11 9 -5 -2 5 -10 4 -12 -4 -7 -6 4 -9 12 -6 17 4 5 2 9
-4 9 -5 0 -11 -6 -14 -12 -3 -10 -7 -10 -20 1 -14 11 -17 11 -17 0 0 -13 -33
27 -36 44 -1 4 -2 10 -3 15 -1 4 -8 -1 -15 -11 -12 -16 -14 -16 -20 -2 -4 11
-2 14 7 9 9 -6 9 -4 -1 8 -9 11 -10 18 -2 23 5 3 10 11 10 17 0 6 -6 6 -15 -2
-9 -7 -14 -19 -11 -27 7 -16 -6 -17 -24 0 -11 9 -11 8 0 -7 14 -18 13 -18 -10
-13 -14 4 -20 4 -13 1 7 -3 9 -12 6 -20 -3 -7 -9 -12 -13 -9 -5 3 -11 1 -14
-4 -4 -5 2 -8 11 -7 9 2 19 8 21 14 2 7 8 10 13 6 5 -3 9 0 9 5 0 6 5 11 11
11 5 0 7 -4 4 -10 -6 -10 8 -14 34 -10 13 1 13 -1 1 -15 -11 -14 -11 -18 0
-25 7 -4 18 -6 24 -4 16 5 49 -23 41 -35 -8 -14 -26 -14 -22 0 1 6 -4 13 -11
15 -7 1 -8 0 -2 -3 5 -2 8 -9 4 -14 -3 -5 2 -12 11 -16 19 -7 37 15 30 35 -3
8 0 12 7 9 13 -4 14 -17 7 -46 -2 -7 2 -16 10 -18 9 -4 11 0 7 13 -5 16 0 19
24 19 17 1 29 -4 27 -10 -2 -5 -13 -9 -23 -7 -16 2 -16 1 -4 -7 9 -7 18 -7 24
-1 13 13 36 13 36 -1 0 -5 -4 -8 -9 -5 -5 3 -14 -1 -21 -9 -9 -10 -9 -15 -1
-15 6 0 11 4 11 8 0 13 33 11 49 -2 11 -8 13 -8 7 2 -5 8 0 12 14 12 12 0 24
-9 30 -22 8 -19 9 -17 6 12 -3 29 0 36 13 36 10 0 18 -6 18 -12 0 -7 -6 -10
-14 -7 -9 3 -11 0 -7 -10 3 -9 12 -13 20 -10 9 3 14 0 12 -7 -2 -7 4 -15 12
-17 12 -4 12 -3 1 5 -8 6 -9 12 -3 16 6 3 13 2 17 -4 4 -6 11 -8 16 -4 5 3 7
10 4 15 -4 5 5 9 19 9 14 0 26 -5 26 -12 0 -6 3 -8 7 -5 3 4 12 -1 20 -11 13
-15 13 -15 3 6 -6 12 -15 22 -21 22 -5 0 -9 15 -7 34 1 19 6 32 10 30 4 -3 8
0 8 5 0 6 -8 11 -17 12 -14 0 -13 2 5 9 12 5 22 12 22 16 0 3 -6 4 -13 1 -8
-3 -14 1 -14 8 0 10 5 11 17 5 24 -13 45 -40 31 -40 -6 0 -11 5 -11 11 0 5 -5
7 -11 3 -8 -5 -6 -10 6 -16 28 -16 42 7 20 32 -15 17 -16 20 -3 15 9 -4 19 -2
23 4 3 6 12 11 18 11 7 0 4 -5 -5 -11 -10 -5 -18 -14 -18 -20 0 -5 11 -2 25 7
20 13 23 19 14 30 -17 21 -1 17 23 -6 24 -22 47 -28 30 -7 -16 18 1 39 24 30
16 -6 17 -5 6 9 -10 13 -10 17 3 22 8 3 15 13 15 21 0 10 -5 13 -12 9 -7 -4
-8 -3 -4 5 10 15 26 5 26 -17 0 -14 2 -14 13 -1 6 8 11 12 10 10 -2 -2 11 -13
28 -23 17 -11 29 -22 25 -25 -3 -3 -11 -1 -19 5 -8 7 -18 7 -27 2 -8 -6 -11
-10 -6 -10 5 0 3 -6 -3 -14 -11 -13 -39 -14 -59 -2 -5 3 -9 -1 -9 -8 0 -8 6
-12 14 -9 7 3 13 -1 13 -8 0 -7 -3 -9 -6 -6 -4 3 -18 -2 -32 -13 -13 -11 -29
-17 -35 -13 -5 3 -7 1 -3 -5 3 -6 1 -14 -5 -18 -8 -5 -10 -2 -5 7 6 10 4 10
-6 -1 -17 -19 -42 -25 -32 -8 6 10 4 10 -9 0 -9 -8 -22 -10 -28 -6 -8 5 -9 3
-4 -7 12 -18 14 -49 3 -43 -4 3 -8 0 -8 -5 0 -6 7 -11 15 -11 8 0 15 -4 15
-10 0 -5 5 -10 11 -10 6 0 4 9 -4 21 -15 21 -12 63 4 53 5 -3 7 -9 4 -14 -8
-13 13 -50 28 -49 9 0 9 2 0 6 -7 2 -13 9 -13 14 0 6 7 6 18 0 11 -6 24 -6 32
-1 12 7 11 9 -5 9 -38 1 -55 4 -55 11 0 15 14 19 32 9 15 -8 24 -6 40 8 20 18
21 18 13 -7 -7 -24 -7 -24 8 -5 19 25 0 41 -24 19 -18 -16 -33 -19 -24 -4 11
19 69 54 64 39 -3 -7 3 -22 13 -32 10 -9 18 -13 18 -8 0 6 -4 13 -10 16 -5 3
-10 13 -10 21 0 8 5 14 10 14 6 0 10 -6 10 -14 0 -20 17 -29 26 -15 4 8 3 9
-4 5 -7 -4 -12 -1 -12 8 0 8 -7 19 -15 23 -12 7 -11 11 7 22 18 11 20 11 15
-1 -3 -8 -2 -21 3 -28 6 -9 10 -7 15 9 5 18 9 20 21 10 8 -6 17 -9 21 -5 3 3
1 6 -7 6 -9 0 -10 3 -1 14 9 11 9 15 -1 19 -8 3 -6 6 6 6 12 1 16 6 12 17 -4
10 -1 14 6 12 7 -3 13 -10 13 -15 0 -6 3 -14 7 -18 10 -10 4 17 -10 41 -11 21
-7 34 9 34 5 0 6 -6 3 -13 -3 -8 2 -20 11 -27 10 -8 15 -9 15 -1 0 6 -4 11
-10 11 -5 0 -10 5 -10 11 0 5 5 7 10 4 6 -3 10 -1 10 4 0 6 -4 11 -8 11 -4 0
-8 10 -9 21 -1 12 1 19 4 15 3 -3 12 -1 20 5 16 14 17 -3 1 -19 -9 -9 -9 -12
0 -12 12 0 14 6 16 45 1 11 11 24 24 30 12 5 22 14 22 19 0 4 -11 1 -25 -8
-24 -16 -25 -16 -21 6 3 13 5 25 5 28 1 3 5 0 9 -7 5 -8 12 -8 25 2 22 16 13
46 -11 37 -15 -5 -15 -4 -3 11 17 22 31 22 32 0 0 -14 2 -13 9 5 10 23 4 51
-11 53 -5 1 -13 3 -19 4 -5 1 -13 3 -17 4 -5 1 -2 5 6 10 20 13 49 2 57 -21 3
-11 8 -17 11 -15 2 3 0 14 -6 25 -8 15 -8 22 2 26 6 3 0 3 -14 0 -16 -3 -30
-1 -35 7 -5 9 -2 11 9 6 9 -3 19 -2 23 4 8 14 -16 41 -32 35 -7 -3 -16 -1 -19
4 -6 10 7 14 38 11 9 -1 17 2 17 8 0 6 -8 7 -17 4 -15 -6 -16 -4 -6 9 7 8 10
18 6 22 -4 3 2 13 13 20 19 14 19 14 -1 13 -11 -1 -19 3 -17 11 1 6 -2 12 -8
12 -13 0 -13 -13 0 -26 7 -7 1 -11 -20 -11 -29 0 -30 1 -13 21 16 18 16 19 1
8 -15 -12 -17 -11 -16 10 1 13 6 29 11 36 9 11 -2 17 -25 13 -5 0 -8 6 -8 15
0 11 -6 14 -22 9 -22 -7 -22 -7 -5 11 18 19 19 18 33 0 8 -11 14 -15 14 -8 0
6 -11 19 -24 28 -16 10 -23 22 -20 32 5 15 4 15 -6 0 -6 -10 -16 -18 -22 -18
-9 0 -9 3 -1 11 9 9 8 18 -4 35 -15 23 -14 23 17 19 23 -3 29 -1 22 8 -5 7 -8
22 -7 34 1 12 -2 20 -7 17 -4 -3 -6 -16 -4 -29 4 -20 1 -24 -17 -22 -15 1 -21
-3 -19 -14 1 -10 -5 -15 -18 -14 -22 1 -63 35 -43 35 7 0 15 -4 18 -10 9 -14
22 -12 29 5 3 9 -4 20 -19 27 -13 7 -24 16 -24 21 -1 4 -2 6 -3 5 -2 -1 -13 4
-25 11 -38 20 -25 5 22 -27 24 -16 42 -32 39 -35 -4 -3 -17 1 -30 10 -19 12
-27 13 -39 3 -9 -8 -15 -9 -15 -2 0 6 5 14 11 18 8 5 6 10 -5 16 -13 7 -21 5
-31 -8 -12 -17 -13 -17 -12 9 1 18 6 25 15 22 7 -3 10 0 7 5 -7 11 -33 9 -52
-3 -16 -10 -17 5 -1 21 8 8 9 12 1 12 -6 0 -13 -5 -15 -11 -3 -9 -10 -9 -27 0
-17 9 -26 10 -34 2 -20 -20 -28 -12 -12 12 15 23 11 38 -9 36 -7 0 -6 -2 1 -5z
m66 -64 c16 -13 28 -16 32 -10 9 15 27 1 21 -17 -10 -25 5 -35 25 -17 11 10
19 12 19 6 0 -7 -5 -12 -10 -12 -6 0 -5 -8 2 -19 11 -18 13 -18 24 -3 7 9 16
14 20 9 4 -4 2 -7 -4 -7 -7 0 -12 -5 -12 -11 0 -5 4 -8 9 -5 4 3 16 -3 25 -13
9 -10 27 -17 41 -15 27 2 42 -10 25 -21 -6 -4 -17 -2 -25 5 -10 8 -15 8 -21
-1 -5 -8 -3 -9 6 -4 8 5 11 4 6 -3 -3 -6 -1 -14 5 -18 8 -5 9 -3 4 5 -6 10 -3
11 14 2 12 -7 26 -9 31 -6 5 3 11 1 15 -5 3 -5 -3 -15 -15 -22 -27 -17 -25
-27 4 -24 17 2 23 -1 19 -10 -3 -9 2 -12 16 -9 22 4 29 -9 11 -20 -5 -3 -10
-1 -10 6 0 7 -3 9 -7 5 -5 -4 1 -14 11 -22 12 -8 15 -14 7 -14 -11 0 -11 -3
-1 -15 7 -8 9 -15 5 -15 -4 0 -2 -7 5 -15 10 -12 15 -13 21 -4 6 10 11 10 24
-1 16 -13 15 -16 -10 -36 -21 -17 -24 -23 -14 -30 8 -5 20 -9 28 -9 8 0 17 -7
19 -15 5 -13 3 -13 -11 -1 -13 10 -17 10 -17 1 0 -7 -7 -10 -17 -6 -17 6 -17
5 0 -8 16 -13 16 -14 1 -20 -13 -5 -15 -9 -6 -18 7 -7 12 -17 12 -22 0 -6 -4
-5 -9 3 -6 9 -11 10 -15 2 -6 -10 6 -15 27 -12 4 0 7 -3 7 -9 0 -5 -4 -10 -9
-10 -21 0 -20 -31 1 -39 16 -6 18 -10 9 -16 -7 -4 -16 -3 -20 2 -3 5 -14 1
-23 -9 -10 -10 -13 -18 -7 -18 5 0 7 -5 3 -11 -5 -8 -9 -8 -14 1 -5 8 -9 7
-13 -4 -4 -9 -3 -15 1 -15 4 1 14 1 22 0 12 -1 12 -3 2 -10 -8 -4 -14 -12 -14
-17 0 -5 -4 -8 -8 -7 -4 1 -14 -4 -20 -12 -10 -12 -10 -15 1 -15 7 0 3 -7 -9
-16 -12 -8 -20 -19 -17 -24 3 -5 1 -11 -4 -15 -6 -3 -20 8 -32 24 -12 16 -27
28 -33 27 -6 -2 -8 -1 -3 1 4 3 4 10 0 16 -5 8 -2 8 9 0 8 -7 19 -9 23 -5 5 4
5 1 1 -5 -4 -7 -2 -13 3 -13 6 0 11 7 11 15 0 8 5 15 11 15 7 0 0 9 -15 21
-14 11 -30 18 -35 14 -5 -3 -13 0 -17 6 -4 7 -3 9 4 5 6 -3 14 -1 17 5 5 7 12
3 22 -10 21 -30 37 -26 17 4 -9 14 -14 28 -11 31 3 3 8 -3 11 -14 6 -18 38
-24 52 -9 7 6 -10 11 -28 8 -12 -2 -10 17 2 24 6 3 10 1 10 -4 0 -6 6 -11 14
-11 15 0 49 56 37 63 -3 2 -1 3 5 1 6 -1 11 4 11 11 0 7 -5 12 -11 11 -6 -2
-8 -1 -3 1 4 3 4 10 0 16 -11 18 -12 36 -2 43 5 3 6 11 2 17 -4 7 -9 17 -10
22 -1 6 -4 19 -7 30 -2 11 -5 21 -5 23 -1 1 -7 -3 -15 -10 -10 -9 -11 -15 -2
-20 8 -6 8 -8 -1 -8 -19 0 -24 17 -8 30 8 7 15 17 15 22 0 6 -6 6 -14 -1 -16
-13 -32 2 -21 19 3 6 -4 15 -17 20 -20 9 -20 10 7 4 l30 -6 -29 31 c-17 17
-26 31 -20 32 5 0 -4 7 -21 14 -19 9 -24 14 -12 15 9 0 17 5 17 10 0 14 -23
12 -39 -2 -8 -7 -6 -1 4 15 9 15 13 27 7 27 -5 0 -13 -7 -16 -16 -4 -9 -9 -14
-13 -11 -3 4 0 13 7 22 8 9 9 15 2 15 -6 0 -16 -8 -21 -17 -6 -10 -11 -13 -11
-6 0 6 5 15 10 18 6 4 7 11 4 17 -4 6 -9 5 -15 -3 -4 -7 -11 -10 -16 -6 -4 5
-1 12 7 17 8 5 11 12 7 16 -4 4 -16 -1 -26 -10 -11 -10 -26 -16 -33 -13 -9 4
-8 6 3 6 9 1 22 8 29 16 15 18 10 18 -24 5 -14 -5 -26 -7 -26 -4 0 2 9 8 21
12 l20 8 -20 24 c-11 14 -20 20 -21 15 0 -6 5 -16 10 -23 6 -6 7 -9 3 -7 -4 3
-13 -5 -20 -17 -11 -19 -13 -19 -11 -4 4 22 -32 48 -39 29 -5 -15 -23 -17 -23
-4 0 5 9 13 20 16 11 4 18 11 15 16 -4 5 -14 5 -25 -1 -20 -11 -36 2 -25 19 3
5 1 12 -5 16 -6 4 -8 11 -4 16 4 6 10 6 19 -1 9 -8 14 -6 19 5 7 20 18 19 49
-5z m-139 -19 c-2 -3 -19 -6 -36 -7 -18 -2 -27 1 -20 5 13 8 64 10 56 2z m118
-78 c-10 -4 -10 -8 0 -21 12 -15 11 -16 -4 -3 -19 14 -15 32 5 30 8 0 8 -2 -1
-6z m-328 -21 c3 -5 -1 -9 -9 -9 -8 0 -15 4 -15 9 0 4 4 8 9 8 6 0 12 -4 15
-8z m-94 -36 c0 -3 -4 -8 -10 -11 -5 -3 -10 -1 -10 4 0 6 5 11 10 11 6 0 10
-2 10 -4z m20 -10 c0 -2 -8 -10 -17 -17 -16 -13 -17 -12 -4 4 13 16 21 21 21
13z m-205 -36 c-3 -5 -2 -10 2 -10 5 0 9 -10 9 -23 0 -13 -6 -24 -13 -24 -8 0
-9 4 -3 12 5 6 5 16 0 25 -13 20 -12 30 1 30 5 0 7 -4 4 -10z m158 -15 c-3 -9
-8 -14 -10 -11 -3 3 -2 9 2 15 9 16 15 13 8 -4z m-33 -30 c0 -5 -5 -3 -10 5
-5 8 -10 20 -10 25 0 6 5 3 10 -5 5 -8 10 -19 10 -25z m660 11 c0 -2 -7 -7
-16 -10 -8 -3 -12 -2 -9 4 6 10 25 14 25 6z m-623 -21 c0 -8 -4 -12 -9 -9 -5
3 -6 10 -3 15 9 13 12 11 12 -6z m643 5 c0 -5 -5 -10 -11 -10 -5 0 -7 5 -4 10
3 6 8 10 11 10 2 0 4 -4 4 -10z m-713 -42 c-3 -7 -5 -2 -5 12 0 14 2 19 5 13
2 -7 2 -19 0 -25z m-100 10 c-2 -7 -10 -12 -16 -10 -6 1 -11 -3 -11 -10 0 -6
-3 -8 -6 -5 -8 8 14 37 28 37 5 0 8 -6 5 -12z m138 2 c3 -6 -1 -7 -9 -4 -18 7
-21 14 -7 14 6 0 13 -4 16 -10z m-172 -54 c3 3 4 -2 3 -13 -2 -10 3 -31 11
-47 8 -15 10 -25 4 -22 -6 4 -11 2 -11 -4 0 -6 -4 -9 -9 -6 -5 3 -14 -1 -21
-9 -9 -11 -16 -12 -26 -4 -11 9 -7 16 17 37 28 23 29 27 15 37 -9 7 -13 15 -9
18 3 4 0 15 -8 24 -13 17 -13 17 7 0 11 -9 23 -14 27 -11z m147 -2 c0 -8 -19
-13 -24 -6 -3 5 1 9 9 9 8 0 15 -2 15 -3z m-40 -24 c0 -5 -4 -10 -10 -10 -5 0
-10 5 -10 10 0 6 5 10 10 10 6 0 10 -4 10 -10z m777 -9 c0 -11 -5 -18 -9 -15
-4 3 -5 11 -1 19 7 21 12 19 10 -4z m-891 -110 c0 -11 -5 -17 -13 -14 -10 4
-11 9 -2 19 15 18 15 18 15 -5z m1044 -23 c0 -6 -7 -5 -15 2 -8 7 -15 17 -15
22 0 6 7 5 15 -2 8 -7 15 -17 15 -22z m-910 -78 c0 -5 -5 -10 -11 -10 -5 0 -7
5 -4 10 3 6 8 10 11 10 2 0 4 -4 4 -10z m-123 -21 c2 -17 -1 -18 -12 -9 -8 7
-12 16 -9 21 9 16 20 10 21 -12z m160 6 c0 -8 -4 -12 -9 -9 -5 3 -6 10 -3 15
9 13 12 11 12 -6z m1 -50 c-3 -3 -9 2 -12 12 -6 14 -5 15 5 6 7 -7 10 -15 7
-18z m36 -33 c3 -5 -1 -9 -9 -9 -8 0 -12 4 -9 9 3 4 7 8 9 8 2 0 6 -4 9 -8z
m57 -55 c-10 -9 -11 -8 -5 6 3 10 9 15 12 12 3 -3 0 -11 -7 -18z m44 -7 c3 -5
1 -10 -4 -10 -6 0 -11 5 -11 10 0 6 2 10 4 10 3 0 8 -4 11 -10z m359 -18 c3
-5 -1 -9 -9 -9 -8 0 -12 4 -9 9 3 4 7 8 9 8 2 0 6 -4 9 -8z m66 -7 c0 -8 -2
-15 -4 -15 -2 0 -6 7 -10 15 -3 8 -1 15 4 15 6 0 10 -7 10 -15z m137 -14 c2
-12 -3 -18 -12 -17 -15 2 -17 9 -7 34 6 16 15 8 19 -17z m-502 -11 c3 -6 -1
-7 -9 -4 -18 7 -21 14 -7 14 6 0 13 -4 16 -10z m292 4 c-3 -3 -12 -4 -19 -1
-8 3 -5 6 6 6 11 1 17 -2 13 -5z m129 -36 c4 -7 4 -10 -1 -6 -4 4 -15 2 -24
-5 -14 -11 -14 -10 -2 6 16 20 18 21 27 5z m-582 -19 c-3 -5 -10 -7 -15 -3 -5
3 -7 10 -3 15 3 5 10 7 15 3 5 -3 7 -10 3 -15z m521 -19 c-10 -11 -22 -20 -28
-20 -5 0 1 9 14 20 31 25 37 25 14 0z m-423 -5 c3 3 10 0 16 -8 8 -10 7 -13
-7 -14 -9 -1 -23 8 -31 20 -12 19 -11 20 2 10 8 -7 17 -11 20 -8z m125 -20 c0
-8 -4 -12 -9 -9 -5 3 -6 10 -3 15 9 13 12 11 12 -6z m106 -46 c4 -15 2 -18 -7
-10 -7 6 -17 7 -22 3 -4 -4 -2 1 5 11 17 21 18 21 24 -4z"/>
<path d="M1386 1684 c-5 -14 -9 -14 -24 -3 -14 11 -15 11 -5 0 6 -7 9 -21 6
-30 -3 -9 -1 -12 4 -6 15 19 33 15 49 -10 9 -14 21 -25 26 -25 6 0 6 5 -1 14
-9 10 -8 15 3 19 9 4 23 -4 35 -19 13 -16 21 -20 24 -12 4 9 6 10 6 1 1 -17
41 -58 76 -76 17 -9 24 -16 16 -17 -11 0 -10 -3 4 -13 10 -8 15 -19 12 -24 -4
-6 0 -14 9 -17 9 -4 14 -9 11 -13 -4 -3 8 -20 26 -37 17 -17 31 -37 29 -43 -2
-7 2 -13 8 -13 6 0 8 -5 5 -10 -3 -6 1 -13 10 -16 13 -6 14 -8 3 -15 -9 -6 -9
-9 -1 -9 6 0 10 -9 8 -20 -2 -11 1 -22 6 -25 5 -4 6 -12 2 -18 -11 -18 -12
-38 -2 -31 5 3 7 9 4 14 -3 5 -1 12 5 15 8 5 7 11 -1 21 -11 13 -5 19 16 14 5
-1 2 7 -7 17 -14 15 -14 21 -4 35 7 10 16 15 19 11 4 -3 7 -1 7 6 0 7 -6 11
-14 8 -8 -3 -22 3 -32 14 -9 10 -14 19 -9 19 4 0 2 7 -5 15 -7 8 -9 15 -6 15
4 0 -2 14 -14 30 -12 17 -25 28 -30 25 -14 -9 -23 15 -10 30 12 14 -3 31 -19
21 -10 -6 -29 14 -46 48 -6 12 -20 21 -33 21 -13 0 -28 8 -33 18 -6 9 -14 15
-18 12 -13 -7 -34 22 -25 36 5 8 3 9 -5 4 -8 -4 -25 1 -42 14 -34 25 -35 25
-43 5z m51 -36 c-7 -4 -19 0 -28 8 -8 8 -20 11 -24 7 -5 -5 -3 0 4 9 12 17 14
17 36 0 15 -11 19 -19 12 -24z m139 -81 c3 -21 1 -21 -20 2 -17 19 -17 19 0
17 9 -2 18 -10 20 -19z m74 -52 c0 -7 -30 -13 -34 -7 -3 4 4 9 15 9 10 1 19 0
19 -2z m12 -50 c3 3 13 -6 22 -20 9 -14 14 -25 10 -25 -4 0 0 -7 7 -17 13 -15
12 -15 -8 -2 -16 9 -19 16 -10 21 11 7 10 9 -13 12 -5 0 -17 12 -27 26 -13 19
-14 22 -2 13 9 -7 18 -10 21 -8z m68 -115 c9 -16 8 -18 -5 -14 -9 4 -13 9 -11
12 3 3 0 12 -7 20 -9 13 -9 14 0 8 7 -4 18 -16 23 -26z"/>
<path d="M1400 1676 c0 -2 8 -10 18 -17 15 -13 16 -12 3 4 -13 16 -21 21 -21
13z"/>
<path d="M1666 1374 c-10 -25 1 -29 14 -5 6 12 7 21 1 21 -5 0 -12 -7 -15 -16z"/>
<path d="M1725 1139 c-4 -6 -5 -12 -2 -15 2 -3 7 2 10 11 7 17 1 20 -8 4z"/>
<path d="M1667 1054 c17 -13 17 -14 -2 -7 -11 3 -17 3 -13 -2 4 -4 -1 -20 -12
-35 -19 -26 -19 -28 -2 -41 9 -7 14 -9 9 -4 -4 4 1 17 10 28 10 11 12 17 6 13
-7 -4 -13 -3 -13 1 0 9 42 38 51 36 3 -1 6 4 6 10 0 7 -13 13 -29 14 -26 1
-27 0 -11 -13z"/>
<path d="M743 1288 c-18 -23 -25 -43 -8 -23 9 11 21 19 26 17 6 -1 8 2 4 8 -8
13 -10 13 -22 -2z"/>
<path d="M1550 1751 c0 -6 4 -12 8 -15 5 -3 9 1 9 9 0 8 -4 15 -9 15 -4 0 -8
-4 -8 -9z"/>
<path d="M1590 1746 c7 -7 13 -7 20 0 6 6 3 10 -10 10 -13 0 -16 -4 -10 -10z"/>
<path d="M997 1729 c4 -13 8 -18 11 -10 2 7 -1 18 -6 23 -8 8 -9 4 -5 -13z"/>
<path d="M871 1737 c2 -2 11 -8 20 -15 12 -9 16 -9 16 1 0 7 -9 14 -20 14 -11
1 -18 1 -16 0z"/>
<path d="M965 1729 c-4 -6 -5 -12 -2 -15 2 -3 7 2 10 11 7 17 1 20 -8 4z"/>
<path d="M1430 1730 c-8 -5 -10 -10 -5 -10 6 0 17 5 25 10 8 5 11 10 5 10 -5
0 -17 -5 -25 -10z"/>
<path d="M1510 1720 c6 -11 15 -20 20 -20 6 0 2 9 -7 20 -10 11 -19 20 -21 20
-1 0 2 -9 8 -20z"/>
<path d="M1633 1715 c0 -8 4 -12 9 -9 5 3 6 10 3 15 -9 13 -12 11 -12 -6z"/>
<path d="M1590 1716 c0 -2 7 -7 16 -10 8 -3 12 -2 9 4 -6 10 -25 14 -25 6z"/>
<path d="M813 1683 c0 -9 4 -10 14 -2 7 6 13 12 13 14 0 1 -6 2 -13 2 -8 0
-14 -6 -14 -14z"/>
<path d="M921 1684 c0 -11 3 -14 6 -6 3 7 2 16 -1 19 -3 4 -6 -2 -5 -13z"/>
<path d="M976 1688 c5 -8 2 -9 -9 -5 -10 3 -17 2 -17 -4 0 -14 32 -7 38 9 2 6
-1 12 -8 12 -6 0 -8 -5 -4 -12z"/>
<path d="M1587 1689 c7 -7 15 -10 18 -7 3 3 -2 9 -12 12 -14 6 -15 5 -6 -5z"/>
<path d="M1746 1688 c3 -5 10 -6 15 -3 13 9 11 12 -6 12 -8 0 -12 -4 -9 -9z"/>
<path d="M873 1673 c4 -3 2 -12 -5 -20 -6 -7 -8 -16 -4 -20 3 -3 6 -1 6 6 0 7
4 10 8 7 4 -2 9 4 9 15 1 10 -3 19 -9 19 -6 0 -8 -3 -5 -7z"/>
<path d="M1640 1670 c-8 -5 -10 -10 -5 -10 6 0 17 5 25 10 8 5 11 10 5 10 -5
0 -17 -5 -25 -10z"/>
<path d="M990 1655 c0 -8 5 -15 12 -15 6 0 9 -2 6 -5 -7 -8 -39 6 -34 14 2 3
-13 6 -34 6 -21 0 -38 -2 -38 -5 3 -15 -16 -39 -26 -33 -6 4 -6 0 2 -9 8 -10
9 -19 4 -22 -6 -3 -13 1 -16 10 -4 9 -9 14 -13 10 -4 -3 4 -17 17 -31 13 -14
19 -25 14 -25 -14 0 -29 13 -43 35 -12 20 -10 8 5 -30 3 -8 1 -15 -5 -15 -6 0
-11 5 -11 12 0 6 -3 8 -7 4 -4 -3 9 -20 28 -36 22 -19 27 -27 14 -23 -17 6
-18 5 -7 -9 10 -13 10 -18 1 -24 -8 -4 -9 -3 -5 4 5 8 2 10 -9 6 -20 -8 -14
-15 17 -18 20 -2 24 2 23 23 -1 33 24 74 41 67 8 -3 14 -1 14 5 0 6 4 8 8 5 4
-3 25 10 45 29 23 22 37 29 37 19 0 -7 5 -14 10 -14 13 0 13 17 0 25 -6 4 -7
11 -4 17 4 6 2 8 -3 5 -12 -8 -36 17 -26 26 3 4 1 7 -5 7 -7 0 -12 -7 -12 -15z
m-28 -18 c7 -8 23 -13 35 -12 14 1 19 -3 16 -12 -3 -7 -9 -10 -14 -7 -5 3 -12
-2 -15 -10 -3 -9 -13 -16 -21 -16 -8 0 -12 -4 -8 -9 3 -6 -4 -8 -15 -6 -14 3
-27 -6 -42 -25 -16 -23 -25 -27 -35 -19 -16 14 -8 30 11 23 17 -6 31 12 16 21
-11 7 -4 25 10 25 5 0 7 -8 4 -17 -5 -14 -4 -15 4 -4 5 7 15 10 21 7 7 -5 10
-2 9 6 -2 8 5 12 17 10 15 -2 17 -1 6 6 -10 7 -10 11 -1 14 9 3 7 8 -4 17 -14
12 -16 12 -11 -2 4 -8 2 -18 -4 -22 -6 -3 -11 1 -11 9 0 9 -4 16 -10 16 -12 0
-9 -22 5 -32 15 -11 -7 -10 -24 1 -11 7 -9 13 8 30 24 24 35 26 53 8z"/>
<path d="M1744 1652 c4 -3 14 -7 22 -8 9 -1 13 0 10 4 -4 3 -14 7 -22 8 -9 1
-13 0 -10 -4z"/>
<path d="M835 1630 c3 -5 8 -10 11 -10 2 0 4 5 4 10 0 6 -5 10 -11 10 -5 0 -7
-4 -4 -10z"/>
<path d="M1795 1630 c3 -5 8 -10 11 -10 2 0 4 5 4 10 0 6 -5 10 -11 10 -5 0
-7 -4 -4 -10z"/>
<path d="M730 1611 c0 -6 4 -13 10 -16 6 -3 7 1 4 9 -7 18 -14 21 -14 7z"/>
<path d="M804 1604 c-18 -14 -18 -15 4 -4 12 6 22 13 22 15 0 8 -5 6 -26 -11z"/>
<path d="M1733 1603 c0 -9 4 -10 14 -2 7 6 13 12 13 14 0 1 -6 2 -13 2 -8 0
-14 -6 -14 -14z"/>
<path d="M781 1573 c16 -27 25 -29 33 -7 3 9 2 12 -5 9 -5 -4 -17 -1 -26 7
-15 12 -15 11 -2 -9z"/>
<path d="M1775 1580 c-4 -6 -11 -7 -17 -4 -7 4 -8 2 -4 -5 6 -9 11 -9 22 0 14
11 18 19 10 19 -3 0 -8 -5 -11 -10z"/>
<path d="M655 1550 c3 -5 8 -10 11 -10 2 0 4 5 4 10 0 6 -5 10 -11 10 -5 0 -7
-4 -4 -10z"/>
<path d="M718 1543 c7 -3 16 -2 19 1 4 3 -2 6 -13 5 -11 0 -14 -3 -6 -6z"/>
<path d="M1716 1535 c23 -17 34 -19 34 -4 0 5 -4 8 -9 4 -5 -3 -12 -1 -16 5
-3 5 -11 10 -18 10 -6 0 -2 -7 9 -15z"/>
<path d="M1836 1537 c3 -10 9 -15 12 -12 3 3 0 11 -7 18 -10 9 -11 8 -5 -6z"/>
<path d="M616 1532 c-2 -4 -1 -14 4 -22 7 -11 9 -9 7 8 -1 24 -3 26 -11 14z"/>
<path d="M770 1530 c0 -5 5 -10 10 -10 6 0 10 5 10 10 0 6 -4 10 -10 10 -5 0
-10 -4 -10 -10z"/>
<path d="M818 1510 c18 -32 32 -39 28 -15 -1 9 -12 22 -24 31 l-22 15 18 -31z"/>
<path d="M1757 1500 c-9 -11 -13 -20 -7 -20 5 0 14 9 20 20 6 11 9 20 8 20 -2
0 -11 -9 -21 -20z"/>
<path d="M1794 1475 c0 -33 4 -41 19 -41 15 0 16 2 5 11 -14 11 -17 43 -6 61
4 6 2 11 -5 11 -8 0 -13 -16 -13 -42z"/>
<path d="M666 1490 c5 -8 9 -18 9 -22 0 -3 3 -9 7 -13 3 -4 5 0 4 9 -1 9 -8
22 -16 29 -10 10 -11 9 -4 -3z"/>
<path d="M736 1486 c4 -11 0 -14 -15 -11 -12 2 -19 0 -16 -5 7 -11 38 -6 42 7
2 6 -1 14 -6 18 -7 3 -8 0 -5 -9z"/>
<path d="M616 1472 c-2 -4 -1 -14 4 -22 7 -11 9 -9 7 8 -1 24 -3 26 -11 14z"/>
<path d="M1826 1472 c-3 -5 1 -9 9 -9 8 0 12 4 9 9 -3 4 -7 8 -9 8 -2 0 -6 -4
-9 -8z"/>
<path d="M1750 1440 c0 -5 5 -10 10 -10 6 0 10 5 10 10 0 6 -4 10 -10 10 -5 0
-10 -4 -10 -10z"/>
<path d="M2457 1416 c-3 -8 0 -17 8 -19 7 -3 12 0 11 8 -3 22 -13 27 -19 11z"/>
<path d="M673 1404 c0 -11 3 -11 16 -1 12 10 14 9 8 -6 -4 -11 -3 -16 4 -12 5
4 8 12 6 18 -5 16 -34 17 -34 1z"/>
<path d="M1866 1412 c-3 -5 1 -9 9 -9 8 0 12 4 9 9 -3 4 -7 8 -9 8 -2 0 -6 -4
-9 -8z"/>
<path d="M1936 1412 c-3 -5 1 -9 9 -9 8 0 12 4 9 9 -3 4 -7 8 -9 8 -2 0 -6 -4
-9 -8z"/>
<path d="M650 1391 c0 -10 29 -36 34 -30 1 2 -6 12 -16 22 -10 9 -18 13 -18 8z"/>
<path d="M1856 1377 c3 -10 9 -15 12 -12 3 3 0 11 -7 18 -10 9 -11 8 -5 -6z"/>
<path d="M1831 1367 c-1 -11 -6 -15 -13 -11 -7 5 -8 3 -3 -5 10 -16 29 2 22
21 -4 8 -6 7 -6 -5z"/>
<path d="M579 1358 c-5 -18 -6 -38 -1 -34 7 8 12 36 6 36 -2 0 -4 -1 -5 -2z"/>
<path d="M626 1348 c3 -5 10 -6 15 -3 13 9 11 12 -6 12 -8 0 -12 -4 -9 -9z"/>
<path d="M646 1335 c-11 -8 -15 -15 -9 -15 6 0 16 7 23 15 16 19 11 19 -14 0z"/>
<path d="M1835 1324 c-18 -15 -23 -22 -11 -18 13 5 17 4 12 -4 -3 -6 -2 -13 3
-16 5 -4 8 2 6 11 -1 10 4 26 13 36 21 24 12 21 -23 -9z"/>
<path d="M670 1301 c13 -10 13 -12 0 -22 -13 -9 -13 -10 0 -6 8 2 15 10 15 17
0 7 -7 15 -15 17 -13 4 -13 3 0 -6z"/>
<path d="M1950 1296 c0 -2 7 -7 16 -10 8 -3 12 -2 9 4 -6 10 -25 14 -25 6z"/>
<path d="M2445 1194 c0 -52 -3 -84 -10 -84 -5 0 -3 -5 5 -10 13 -9 13 -10 0
-10 -13 0 -13 -1 0 -10 13 -9 13 -10 0 -10 -9 0 -11 -3 -5 -8 19 -13 17 -35
-2 -28 -9 4 -14 4 -11 0 4 -4 3 -16 -3 -28 -10 -20 -10 -20 5 -2 9 11 19 16
23 12 5 -4 -2 -15 -13 -25 -18 -14 -19 -20 -9 -34 11 -16 13 -16 19 -2 3 9 2
13 -4 10 -6 -3 -10 -2 -10 4 0 5 5 11 12 13 6 2 12 15 14 29 1 13 3 25 4 27 2
1 3 10 4 20 1 9 4 22 7 27 4 6 5 18 4 28 -2 9 2 17 8 17 8 0 7 3 -1 9 -8 4
-14 12 -14 16 0 4 6 12 14 16 10 7 10 9 0 9 -8 0 -10 5 -5 13 12 20 14 47 2
47 -5 0 -7 -5 -3 -12 4 -7 3 -8 -4 -4 -6 4 -9 13 -6 21 4 8 9 13 13 10 4 -2 8
2 8 9 0 8 -10 14 -22 14 -20 0 -21 -5 -20 -84z m30 6 c-3 -5 -12 -10 -18 -10
-7 0 -6 4 3 10 19 12 23 12 15 0z m-10 -64 c-1 -62 -10 -66 -11 -5 0 27 2 49
6 49 3 0 6 -20 5 -44z"/>
<path d="M1860 1256 c19 -24 21 -47 7 -66 -10 -13 -10 -13 5 -2 22 17 19 48
-6 70 -20 16 -20 16 -6 -2z"/>
<path d="M555 1250 c-3 -5 -1 -10 4 -10 6 0 11 5 11 10 0 6 -2 10 -4 10 -3 0
-8 -4 -11 -10z"/>
<path d="M1916 1243 c-6 -14 -5 -15 5 -6 7 7 10 15 7 18 -3 3 -9 -2 -12 -12z"/>
<path d="M673 1218 c-2 -18 0 -20 7 -8 12 18 13 30 2 30 -4 0 -9 -10 -9 -22z"/>
<path d="M1830 1236 c0 -2 7 -7 16 -10 8 -3 12 -2 9 4 -6 10 -25 14 -25 6z"/>
<path d="M35 1210 c-3 -5 -1 -10 4 -10 6 0 11 5 11 10 0 6 -2 10 -4 10 -3 0
-8 -4 -11 -10z"/>
<path d="M1910 1211 c0 -6 4 -13 10 -16 6 -3 7 1 4 9 -7 18 -14 21 -14 7z"/>
<path d="M595 1190 c3 -5 8 -10 11 -10 2 0 4 5 4 10 0 6 -5 10 -11 10 -5 0 -7
-4 -4 -10z"/>
<path d="M654 1169 c0 -12 4 -15 12 -9 6 6 14 7 17 3 4 -3 7 -2 7 4 0 6 -8 13
-18 15 -12 4 -18 -1 -18 -13z"/>
<path d="M1830 1180 c-9 -6 -10 -10 -3 -10 6 0 15 5 18 10 8 12 4 12 -15 0z"/>
<path d="M711 1161 c-17 -11 -24 -41 -9 -41 6 0 8 7 4 15 -3 9 0 15 9 15 8 0
15 5 15 10 0 12 -1 12 -19 1z"/>
<path d="M773 1155 c0 -8 4 -12 9 -9 5 3 6 10 3 15 -9 13 -12 11 -12 -6z"/>
<path d="M576 1151 c-3 -5 2 -15 12 -22 15 -12 16 -12 5 2 -7 9 -10 19 -6 22
3 4 4 7 0 7 -3 0 -8 -4 -11 -9z"/>
<path d="M1816 1148 c3 -4 11 -5 19 -1 21 7 19 12 -4 10 -11 0 -18 -5 -15 -9z"/>
<path d="M1867 1149 c7 -7 15 -10 18 -7 3 3 -2 9 -12 12 -14 6 -15 5 -6 -5z"/>
<path d="M615 1141 c-3 -5 -2 -12 3 -15 5 -3 9 1 9 9 0 17 -3 19 -12 6z"/>
<path d="M670 1113 c0 -6 8 -17 18 -24 16 -13 16 -13 2 6 -8 11 -16 22 -17 24
-2 2 -3 0 -3 -6z"/>
<path d="M1865 1110 c-3 -6 1 -7 9 -4 18 7 21 14 7 14 -6 0 -13 -4 -16 -10z"/>
<path d="M1886 1068 c3 -5 10 -6 15 -3 13 9 11 12 -6 12 -8 0 -12 -4 -9 -9z"/>
<path d="M1763 1063 c-17 -6 -17 -20 0 -20 8 0 14 6 14 14 0 7 -1 13 -1 12 -1
0 -7 -3 -13 -6z"/>
<path d="M717 1046 c-4 -10 -1 -13 9 -9 15 6 19 23 5 23 -5 0 -11 -7 -14 -14z"/>
<path d="M1795 1033 c1 -16 -2 -33 -6 -39 -5 -6 -3 -11 4 -11 13 0 18 60 6 72
-3 3 -5 -7 -4 -22z"/>
<path d="M1750 1021 c0 -6 4 -13 10 -16 6 -3 7 1 4 9 -7 18 -14 21 -14 7z"/>
<path d="M606 992 c-3 -5 1 -9 9 -9 8 0 12 4 9 9 -3 4 -7 8 -9 8 -2 0 -6 -4
-9 -8z"/>
<path d="M700 996 c0 -7 40 -14 44 -7 3 4 -6 8 -20 9 -13 1 -24 0 -24 -2z"/>
<path d="M1729 979 c-6 -11 -8 -23 -5 -27 3 -3 6 0 6 7 0 7 4 9 10 6 6 -3 7 1
4 10 -5 11 -2 14 10 9 9 -3 16 -4 16 -1 0 16 -31 13 -41 -4z"/>
<path d="M906 969 c3 -5 9 -7 14 -4 15 9 22 -15 10 -30 -7 -8 -10 -16 -6 -16
10 -2 25 -6 34 -9 4 -1 11 -2 15 -1 5 1 6 -3 3 -8 -13 -20 5 -38 37 -36 18 2
39 -4 49 -12 11 -10 18 -11 23 -3 4 6 1 9 -7 8 -7 -2 -13 4 -13 12 0 8 -4 18
-10 22 -14 11 -35 10 -35 -2 0 -5 8 -7 18 -4 14 5 14 4 3 -4 -11 -8 -25 2 -62
41 -25 28 -54 52 -63 53 -9 1 -14 -2 -10 -7z m55 -46 c12 -16 12 -17 -2 -6 -9
7 -20 9 -24 5 -5 -4 -5 -1 -1 6 9 16 11 15 27 -5z"/>
<path d="M655 950 c3 -5 8 -10 11 -10 2 0 4 5 4 10 0 6 -5 10 -11 10 -5 0 -7
-4 -4 -10z"/>
<path d="M756 951 c-3 -5 2 -15 12 -22 16 -13 16 -13 2 5 -14 18 -13 19 3 13
11 -4 16 -3 12 3 -8 12 -22 13 -29 1z"/>
<path d="M1559 955 c-1 0 -3 -10 -4 -21 -1 -15 3 -21 14 -19 9 1 16 7 16 14 0
6 7 16 15 21 11 7 8 9 -12 8 -16 -1 -29 -3 -29 -3z"/>
<path d="M1761 946 c-9 -11 -9 -16 1 -22 7 -4 10 -4 6 1 -4 4 -3 14 3 22 6 7
9 13 6 13 -2 0 -10 -6 -16 -14z"/>
<path d="M2400 952 c0 -11 27 -42 37 -42 3 0 -2 10 -13 23 -10 12 -20 24 -21
26 -2 2 -3 -1 -3 -7z"/>
<path d="M730 931 c0 -6 4 -13 10 -16 6 -3 7 1 4 9 -7 18 -14 21 -14 7z"/>
<path d="M1715 930 c-16 -7 -17 -9 -3 -9 9 -1 20 4 23 9 7 11 7 11 -20 0z"/>
<path d="M1795 929 c-3 -4 2 -6 10 -5 21 3 28 13 10 13 -9 0 -18 -4 -20 -8z"/>
<path d="M1736 903 c-6 -14 -5 -15 5 -6 7 7 10 15 7 18 -3 3 -9 -2 -12 -12z"/>
<path d="M68 903 c6 -2 18 -2 25 0 6 3 1 5 -13 5 -14 0 -19 -2 -12 -5z"/>
<path d="M771 894 c0 -11 3 -14 6 -6 3 7 2 16 -1 19 -3 4 -6 -2 -5 -13z"/>
<path d="M794 899 c-3 -6 2 -18 12 -27 17 -16 17 -16 5 0 -7 9 -10 22 -6 28 3
5 4 10 1 10 -3 0 -8 -5 -12 -11z"/>
<path d="M826 893 c-6 -14 -5 -15 5 -6 7 7 10 15 7 18 -3 3 -9 -2 -12 -12z"/>
<path d="M1662 902 c2 -8 7 -13 12 -12 5 1 13 -4 18 -12 8 -11 9 -11 6 0 -2 8
-7 13 -12 12 -5 -1 -13 4 -18 12 -8 11 -9 11 -6 0z"/>
<path d="M2389 893 c-13 -17 -13 -17 6 -3 11 8 22 16 24 17 2 2 0 3 -6 3 -6 0
-17 -8 -24 -17z"/>
<path d="M84 874 c9 -6 14 -14 11 -17 -3 -4 -2 -5 2 -2 15 12 10 31 -9 31 -17
0 -17 -2 -4 -12z"/>
<path d="M1464 876 c-3 -9 -10 -14 -14 -11 -10 6 -24 -14 -16 -22 3 -4 15 2
27 13 12 10 23 18 25 17 2 -2 4 0 5 4 1 15 -21 14 -27 -1z"/>
<path d="M1770 869 c0 -5 5 -7 10 -4 6 3 10 8 10 11 0 2 -4 4 -10 4 -5 0 -10
-5 -10 -11z"/>
<path d="M715 859 c-4 -6 -5 -12 -2 -15 2 -3 7 2 10 11 7 17 1 20 -8 4z"/>
<path d="M892 858 c2 -6 10 -13 16 -14 7 -1 8 0 2 3 -5 2 -8 9 -4 14 3 5 0 9
-6 9 -7 0 -10 -5 -8 -12z"/>
<path d="M1652 861 c-11 -6 -10 -10 0 -19 11 -8 14 -7 14 9 0 10 0 19 -1 19 0
0 -6 -4 -13 -9z"/>
<path d="M2390 860 c0 -5 5 -10 10 -10 6 0 10 5 10 10 0 6 -4 10 -10 10 -5 0
-10 -4 -10 -10z"/>
<path d="M870 855 c0 -5 5 -17 10 -25 5 -8 10 -10 10 -5 0 6 -5 17 -10 25 -5
8 -10 11 -10 5z"/>
<path d="M1610 850 c0 -5 5 -10 10 -10 6 0 10 5 10 10 0 6 -4 10 -10 10 -5 0
-10 -4 -10 -10z"/>
<path d="M96 827 c3 -10 9 -15 12 -12 3 3 0 11 -7 18 -10 9 -11 8 -5 -6z"/>
<path d="M1103 826 c0 -8 6 -12 14 -9 7 3 13 9 13 14 0 5 -6 9 -13 9 -8 0 -14
-6 -14 -14z"/>
<path d="M2375 831 c-6 -11 13 -26 22 -17 4 3 1 6 -6 6 -7 0 -9 5 -6 10 3 6 4
10 1 10 -3 0 -7 -4 -11 -9z"/>
<path d="M855 820 c-4 -6 -10 -8 -15 -5 -4 3 -7 -2 -6 -10 1 -8 4 -16 7 -17 2
-2 3 -1 1 1 -1 2 5 13 15 23 9 10 13 18 10 18 -3 0 -9 -5 -12 -10z"/>
<path d="M921 825 c0 -5 3 -16 8 -23 7 -11 9 -10 14 3 4 9 3 14 -2 10 -5 -3
-12 1 -14 7 -3 7 -6 9 -6 3z"/>
<path d="M1369 818 c0 -2 -2 -11 -4 -21 -3 -15 -1 -16 11 -6 7 6 11 15 8 20
-5 9 -13 12 -15 7z"/>
<path d="M120 801 c0 -6 4 -13 10 -16 6 -3 7 1 4 9 -7 18 -14 21 -14 7z"/>
<path d="M1586 794 c-5 -14 -4 -15 9 -4 17 14 19 20 6 20 -5 0 -12 -7 -15 -16z"/>
<path d="M775 790 c-3 -5 -1 -10 4 -10 6 0 11 5 11 10 0 6 -2 10 -4 10 -3 0
-8 -4 -11 -10z"/>
<path d="M870 788 c0 -4 4 -8 9 -8 6 0 12 4 15 8 3 5 -1 9 -9 9 -8 0 -15 -4
-15 -9z"/>
<path d="M1535 789 c-4 -6 -5 -12 -2 -15 2 -3 7 2 10 11 7 17 1 20 -8 4z"/>
<path d="M1673 785 c0 -8 4 -12 9 -9 5 3 6 10 3 15 -9 13 -12 11 -12 -6z"/>
<path d="M1730 796 c0 -2 7 -7 16 -10 8 -3 12 -2 9 4 -6 10 -25 14 -25 6z"/>
<path d="M819 778 c-5 -18 -6 -38 -1 -34 7 8 12 36 6 36 -2 0 -4 -1 -5 -2z"/>
<path d="M914 764 c1 -8 4 -15 7 -16 2 -2 3 -1 2 1 -2 2 2 9 7 16 7 8 5 12 -4
12 -8 0 -13 -6 -12 -13z"/>
<path d="M855 750 c3 -5 8 -10 11 -10 2 0 4 5 4 10 0 6 -5 10 -11 10 -5 0 -7
-4 -4 -10z"/>
<path d="M1059 758 c-6 -12 -4 -46 2 -42 4 2 5 12 2 21 -5 12 -3 14 7 8 9 -5
11 -4 6 3 -7 11 -14 15 -17 10z"/>
<path d="M1177 736 c-4 -10 -3 -15 3 -11 6 3 10 1 10 -6 0 -7 3 -10 6 -6 3 3
2 13 -4 22 -8 16 -9 16 -15 1z"/>
<path d="M2336 737 c3 -10 9 -15 12 -12 3 3 0 11 -7 18 -10 9 -11 8 -5 -6z"/>
<path d="M985 729 c-3 -4 2 -6 10 -5 21 3 28 13 10 13 -9 0 -18 -4 -20 -8z"/>
<path d="M1115 729 c-3 -4 2 -6 10 -5 21 3 28 13 10 13 -9 0 -18 -4 -20 -8z"/>
<path d="M1315 731 c-3 -5 0 -13 6 -17 8 -5 9 -3 4 6 -6 10 -4 12 9 7 10 -4
20 -7 22 -7 3 0 3 -4 0 -8 -3 -5 2 -9 11 -9 12 0 11 5 -7 19 -25 20 -36 22
-45 9z"/>
<path d="M1500 729 c-12 -9 -12 -10 4 -5 10 4 26 1 35 -6 14 -12 14 -11 2 5
-16 20 -21 21 -41 6z"/>
<path d="M1434 716 c1 -8 5 -18 8 -22 4 -3 5 1 4 10 -1 8 -5 18 -8 22 -4 3 -5
-1 -4 -10z"/>
<path d="M1230 710 c0 -5 5 -10 10 -10 6 0 10 5 10 10 0 6 -4 10 -10 10 -5 0
-10 -4 -10 -10z"/>
<path d="M1293 713 c4 -3 1 -13 -6 -22 -11 -14 -10 -14 5 -2 16 12 16 31 1 31
-4 0 -3 -3 0 -7z"/>
<path d="M1460 716 c0 -2 8 -10 18 -17 15 -13 16 -12 3 4 -13 16 -21 21 -21
13z"/>
<path d="M1134 689 c0 -12 4 -15 12 -9 6 6 14 7 17 3 4 -3 7 -2 7 4 0 6 -8 13
-18 15 -12 4 -18 -1 -18 -13z"/>
<path d="M186 692 c-3 -5 1 -9 9 -9 8 0 12 4 9 9 -3 4 -7 8 -9 8 -2 0 -6 -4
-9 -8z"/>
<path d="M845 690 c-3 -6 1 -7 9 -4 18 7 21 14 7 14 -6 0 -13 -4 -16 -10z"/>
<path d="M1311 677 c-13 -21 -12 -21 5 -5 10 10 16 20 13 22 -3 3 -11 -5 -18
-17z"/>
<path d="M1533 681 c0 -11 5 -18 9 -15 4 3 5 11 1 19 -7 21 -12 19 -10 -4z"/>
<path d="M975 681 c-3 -5 -2 -12 3 -15 5 -3 9 1 9 9 0 17 -3 19 -12 6z"/>
<path d="M1175 630 c3 -5 8 -10 11 -10 2 0 4 5 4 10 0 6 -5 10 -11 10 -5 0 -7
-4 -4 -10z"/>
<path d="M1375 630 c3 -5 8 -10 11 -10 2 0 4 5 4 10 0 6 -5 10 -11 10 -5 0 -7
-4 -4 -10z"/>
</g>
</svg>
